<svg version="1.1"
      xmlns="http://www.w3.org/2000/svg"
      xmlns:xlink="http://www.w3.org/1999/xlink"  id="snapshot-52942" width="250" height="250" viewBox="0 0 250 250"><desc>This image was made on Patterninja.com</desc><defs>
<!-- image 61677 -->
<g id="transformed-61677" data-image="61677" transform="translate(-66.55063683601855, 205.19935162127206) rotate(19, 76.55063683601855, 53.800648378727956)"><g><svg version="1.1" width="153.1012736720371px" height="107.60129675745591px" viewBox="0 0 153.1012736720371 107.60129675745591"><g id="original-61677"><svg xmlns="http://www.w3.org/2000/svg" fill-rule="evenodd" viewBox="0 0 6279.4 4419.3" shape-rendering="geometricPrecision" text-rendering="geometricPrecision" image-rendering="optimizeQuality" clip-rule="evenodd" xmlns:xlink="http://www.w3.org/1999/xlink" version="1.1" preserveAspectRatio="xMidYMid meet">
  <g id="Camada_x0020_1">
    <g id="_2437534726080">
      <path d="M3348.18 3122.7c-144.21 459.77 179.56 998.31 732.23 998.31 423.51 0 766.83-343.31 766.83-766.82l-.01-739.33V715.53c0-155.59 49.7-299.54 134.05-416.94h-2752.9c-230.27 0-416.94 186.67-416.94 416.94V2823.6h1391.22c166.18 3.02 187.19 166.22 145.52 299.1zM6277.95 715.53c0-395.09-320.28-715.36-715.36-715.36H2228.38c-395.08 0-715.36 320.27-715.36 715.36V2823.6H796.5c-440.67 0-797.91 357.24-797.91 797.91 0 440.67 357.24 797.91 797.91 797.91l3283.91.01c588.32 0 1065.24-476.92 1065.24-1065.24V715.53c0-230.27 186.67-416.94 416.94-416.94s416.94 189.64 416.94 416.94c0 227.75-33.41 346.38-104.81 446.66-57.79 81.17 45.65 204.55 181.44 98.04 110.91-87 221.79-265.34 221.79-544.7zM796.5 4121l2544.58.01c-268.17-258.62-381-636.78-300.45-998.99H796.5c-275.85 0-499.48 223.63-499.48 499.49S520.65 4121 796.5 4121z" fill="rgba(0, 0, 0, 1)" stroke="none"/>
      <path d="M3181.61 1724.71c-111.29 0-222.58-35.99-315.43-108.03-37.52-29.08-44.35-83.12-15.22-120.63 29.08-37.56 83.12-44.39 120.59-15.26 123.68 95.95 296.44 95.95 420.12 0 37.47-29.08 91.51-22.3 120.63 15.26 29.09 37.51 22.26 91.51-15.25 120.63-92.86 72.04-204.15 108.03-315.44 108.03zm0 0z" fill="rgba(0, 0, 0, 1)" stroke="none"/>
      <path d="M2256.94 1113.61c84.25 0 152.56 68.31 152.56 152.57 0 49.81-.02 92.87-.02 142.71 0 84.26-68.31 152.57-152.57 152.57-84.27 0-152.58-68.31-152.58-152.57 0-49.8.02-92.86.02-142.71 0-84.26 68.31-152.57 152.59-152.57z" fill="rgba(0, 0, 0, 1)" stroke="none"/>
      <path d="M4106.37 1113.56c84.25 0 152.56 68.31 152.56 152.57 0 49.81-.02 92.87-.02 142.72 0 84.26-68.31 152.56-152.57 152.56-84.27 0-152.58-68.3-152.58-152.56 0-49.81.02-92.87.02-142.72 0-84.26 68.31-152.57 152.59-152.57z" fill="rgba(0, 0, 0, 1)" stroke="none"/>
    </g>
  </g>
</svg>
</g></svg></g></g>
<!-- /image 61677 -->

<!-- image 79558 -->
<g id="transformed-79558" data-image="79558" transform="translate(36, 63) rotate(334, 77, 54)"><g><svg version="1.1" width="154px" height="108px" viewBox="0 0 154 108"><g id="original-79558"><svg xmlns="http://www.w3.org/2000/svg" fill-rule="evenodd" viewBox="0 0 6279.4 4419.3" shape-rendering="geometricPrecision" text-rendering="geometricPrecision" image-rendering="optimizeQuality" clip-rule="evenodd" xmlns:xlink="http://www.w3.org/1999/xlink" version="1.1" preserveAspectRatio="xMidYMid meet">
  <g id="Camada_x0020_1">
    <g id="_2437534726080">
      <path d="M3348.18 3122.7c-144.21 459.77 179.56 998.31 732.23 998.31 423.51 0 766.83-343.31 766.83-766.82l-.01-739.33V715.53c0-155.59 49.7-299.54 134.05-416.94h-2752.9c-230.27 0-416.94 186.67-416.94 416.94V2823.6h1391.22c166.18 3.02 187.19 166.22 145.52 299.1zM6277.95 715.53c0-395.09-320.28-715.36-715.36-715.36H2228.38c-395.08 0-715.36 320.27-715.36 715.36V2823.6H796.5c-440.67 0-797.91 357.24-797.91 797.91 0 440.67 357.24 797.91 797.91 797.91l3283.91.01c588.32 0 1065.24-476.92 1065.24-1065.24V715.53c0-230.27 186.67-416.94 416.94-416.94s416.94 189.64 416.94 416.94c0 227.75-33.41 346.38-104.81 446.66-57.79 81.17 45.65 204.55 181.44 98.04 110.91-87 221.79-265.34 221.79-544.7zM796.5 4121l2544.58.01c-268.17-258.62-381-636.78-300.45-998.99H796.5c-275.85 0-499.48 223.63-499.48 499.49S520.65 4121 796.5 4121z" fill="rgba(0, 0, 0, 1)" stroke="none"/>
      <path d="M3181.61 1724.71c-111.29 0-222.58-35.99-315.43-108.03-37.52-29.08-44.35-83.12-15.22-120.63 29.08-37.56 83.12-44.39 120.59-15.26 123.68 95.95 296.44 95.95 420.12 0 37.47-29.08 91.51-22.3 120.63 15.26 29.09 37.51 22.26 91.51-15.25 120.63-92.86 72.04-204.15 108.03-315.44 108.03zm0 0z" fill="rgba(0, 0, 0, 1)" stroke="none"/>
      <path d="M2256.94 1113.61c84.25 0 152.56 68.31 152.56 152.57 0 49.81-.02 92.87-.02 142.71 0 84.26-68.31 152.57-152.57 152.57-84.27 0-152.58-68.31-152.58-152.57 0-49.8.02-92.86.02-142.71 0-84.26 68.31-152.57 152.59-152.57z" fill="rgba(0, 0, 0, 1)" stroke="none"/>
      <path d="M4106.37 1113.56c84.25 0 152.56 68.31 152.56 152.57 0 49.81-.02 92.87-.02 142.72 0 84.26-68.31 152.56-152.57 152.56-84.27 0-152.58-68.3-152.58-152.56 0-49.81.02-92.87.02-142.72 0-84.26 68.31-152.57 152.59-152.57z" fill="rgba(0, 0, 0, 1)" stroke="none"/>
    </g>
  </g>
</svg>
</g></svg></g></g>
<!-- /image 79558 -->
</defs><rect x="0" y="0" width="250" height="250" fill="rgba(246, 246, 246, 0)"></rect><use xlink:href="#transformed-61677" transform="translate(-250, -250)"></use><use xlink:href="#transformed-61677" transform="translate(0, -250)"></use><use xlink:href="#transformed-61677" transform="translate(250, -250)"></use><use xlink:href="#transformed-61677" transform="translate(-250, 0)"></use><use xlink:href="#transformed-61677" transform="translate(0, 0)"></use><use xlink:href="#transformed-61677" transform="translate(250, 0)"></use><use xlink:href="#transformed-61677" transform="translate(-250, 250)"></use><use xlink:href="#transformed-61677" transform="translate(0, 250)"></use><use xlink:href="#transformed-61677" transform="translate(250, 250)"></use><use xlink:href="#transformed-79558" transform="translate(-250, -250)"></use><use xlink:href="#transformed-79558" transform="translate(0, -250)"></use><use xlink:href="#transformed-79558" transform="translate(250, -250)"></use><use xlink:href="#transformed-79558" transform="translate(-250, 0)"></use><use xlink:href="#transformed-79558" transform="translate(0, 0)"></use><use xlink:href="#transformed-79558" transform="translate(250, 0)"></use><use xlink:href="#transformed-79558" transform="translate(-250, 250)"></use><use xlink:href="#transformed-79558" transform="translate(0, 250)"></use><use xlink:href="#transformed-79558" transform="translate(250, 250)"></use></svg>